<?xml version="1.0" encoding="iso-8859-1"?>
<!-- Generator: Adobe Illustrator 19.0.0, SVG Export Plug-In . SVG Version: 6.00 Build 0)  -->
<svg version="1.1" id="Capa_1" xmlns="http://www.w3.org/2000/svg" xmlns:xlink="http://www.w3.org/1999/xlink" x="0px" y="0px"
	 viewBox="0 0 412.333 412.333" style="enable-background:new 0 0 412.333 412.333;" xml:space="preserve">
<g>
	<path d="M206.167,205.333c56.61,0,102.667-46.056,102.667-102.667S262.777,0,206.167,0S103.5,46.056,103.5,102.667
		S149.556,205.333,206.167,205.333z M206.167,40c34.554,0,62.667,28.112,62.667,62.667s-28.112,62.667-62.667,62.667
		S143.5,137.221,143.5,102.667S171.612,40,206.167,40z"/>
	<path d="M206.167,223.333c-93.187,0-169,75.813-169,169v20h338v-20C375.167,299.146,299.354,223.333,206.167,223.333z
		 M78.714,372.333c9.637-61.671,63.12-109,127.452-109s117.815,47.329,127.452,109H78.714z"/>
</g>
<g>
</g>
<g>
</g>
<g>
</g>
<g>
</g>
<g>
</g>
<g>
</g>
<g>
</g>
<g>
</g>
<g>
</g>
<g>
</g>
<g>
</g>
<g>
</g>
<g>
</g>
<g>
</g>
<g>
</g>
</svg>
